<svg xmlns:dc="http://purl.org/dc/elements/1.1/" xmlns:cc="http://creativecommons.org/ns#" xmlns:rdf="http://www.w3.org/1999/02/22-rdf-syntax-ns#" xmlns:svg="http://www.w3.org/2000/svg" xmlns="http://www.w3.org/2000/svg" xmlns:sodipodi="http://sodipodi.sourceforge.net/DTD/sodipodi-0.dtd" xmlns:inkscape="http://www.inkscape.org/namespaces/inkscape" version="1.1" x="0px" y="0px" viewBox="0 0 100 125"><g transform="translate(0,-952.36218)"><path style="font-size:medium;font-style:normal;font-variant:normal;font-weight:normal;font-stretch:normal;text-indent:0;text-align:start;text-decoration:none;line-height:normal;letter-spacing:normal;word-spacing:normal;text-transform:none;direction:ltr;block-progression:tb;writing-mode:lr-tb;text-anchor:start;baseline-shift:baseline;opacity:1;color:#000000;fill:#000000;fill-opacity:1;stroke:none;stroke-width:3.99999976000000010;marker:none;visibility:visible;display:inline;overflow:visible;enable-background:accumulate;font-family:Sans;-inkscape-font-specification:Sans" d="M 74.125 18 C 73.669898 18.0275 73.302973 18.11516 73.03125 18.1875 L 10.03125 34.9375 C 7.1622901 35.70093 5.4145056 38.6976 6.1875 41.5625 L 15.0625 74.5 C 15.503038 76.132679 16.681662 77.394214 18.125 78.03125 C 18.756925 80.314758 20.841665 82 23.3125 82 L 88.59375 82 C 91.555596 82 94 79.55555 94 76.59375 L 94 42.5 C 94 39.53815 91.555596 37.09375 88.59375 37.09375 L 83.75 37.09375 L 79.6875 22 C 79.010988 19.49272 76.656814 17.84656 74.125 18 z M 74.34375 22 C 75.004156 21.96 75.627712 22.37764 75.8125 23.0625 L 79.625 37.09375 L 23.3125 37.09375 C 20.350654 37.09375 17.90625 39.53815 17.90625 42.5 L 17.90625 69.65625 L 10.0625 40.53125 C 9.8511544 39.74795 10.25786 39.02661 11.0625 38.8125 L 74.0625 22.0625 C 74.249977 22.0126 74.342812 22.0001 74.34375 22 z M 23.3125 41.09375 L 73.53125 41.09375 L 73.53125 46.1875 C 72.870479 45.659624 72.154109 45.223493 71.40625 44.90625 C 70.468534 44.50847 69.454818 44.29979 68.4375 44.3125 C 67.420182 44.3252 66.395871 44.56218 65.46875 45.09375 C 63.614502 46.1569 62.588705 48.1059 62.34375 50.125 C 62.098795 52.1441 62.566468 54.3305 63.71875 56.3125 C 63.964235 56.734744 64.245279 57.141874 64.53125 57.53125 L 21.90625 57.53125 L 21.90625 42.5 C 21.90625 41.68497 22.497465 41.09375 23.3125 41.09375 z M 77.53125 41.09375 L 88.59375 41.09375 C 89.408785 41.09375 90 41.68497 90 42.5 L 90 57.53125 L 86.53125 57.53125 C 86.818414 57.141874 87.098266 56.734744 87.34375 56.3125 C 88.496038 54.3305 88.963706 52.1441 88.71875 50.125 C 88.473794 48.1059 87.416752 46.1569 85.5625 45.09375 C 84.635379 44.56218 83.642318 44.32521 82.625 44.3125 C 81.607682 44.2998 80.593966 44.50847 79.65625 44.90625 C 78.908391 45.223493 78.192021 45.659624 77.53125 46.1875 L 77.53125 41.09375 z M 68.53125 48.3125 C 68.92637 48.311875 69.353407 48.38585 69.84375 48.59375 C 70.824436 49.00975 71.881569 49.9087 72.625 51.1875 C 73.173878 52.131619 73.474678 53.127024 73.53125 54 A 2.0001999 2.0001999 0 0 0 73.53125 54.09375 C 73.532197 54.114386 73.530572 54.135765 73.53125 54.15625 L 73.53125 57.53125 L 71.65625 57.53125 A 2.0015253 2.0015253 0 0 0 71.1875 57.4375 C 70.168051 57.4005 68.265901 56.18995 67.15625 54.28125 C 66.412832 53.00255 66.185958 51.6681 66.3125 50.625 C 66.439042 49.5819 66.860408 48.9113 67.46875 48.5625 C 67.772929 48.3881 68.13613 48.313125 68.53125 48.3125 z M 82.53125 48.3125 C 82.934183 48.313125 83.289575 48.38795 83.59375 48.5625 C 84.202098 48.9113 84.623458 49.5819 84.75 50.625 C 84.876542 51.6681 84.618422 53.00255 83.875 54.28125 C 82.76536 56.18995 80.894449 57.4004 79.875 57.4375 A 2.0009763 2.0009763 0 0 0 79.375 57.53125 L 77.53125 57.53125 L 77.53125 54.28125 A 2.0015243 2.0015243 0 0 0 77.53125 54 C 77.583916 53.125457 77.855148 52.135428 78.40625 51.1875 C 79.14968 49.9087 80.206812 49.00975 81.1875 48.59375 C 81.677844 48.3857 82.128317 48.311875 82.53125 48.3125 z M 21.90625 61.53125 L 68.84375 61.53125 C 67.459724 62.918844 66.407251 64.602876 66 66.625 A 2.0102278 2.0102278 0 1 0 69.9375 67.4375 C 70.260238 65.834989 71.702892 64.184234 73.53125 62.90625 L 73.53125 78 L 23.3125 78 C 22.497465 78 21.90625 77.40875 21.90625 76.59375 L 21.90625 61.53125 z M 82.25 61.53125 L 90 61.53125 L 90 76.59375 C 90 77.40875 89.408785 78 88.59375 78 L 77.53125 78 L 77.53125 62.90625 C 79.358631 64.182335 80.803515 65.841213 81.125 67.4375 A 2.0001999 2.0001999 0 1 0 85.03125 66.625 C 84.628168 64.623571 83.608926 62.930119 82.25 61.53125 z " transform="translate(0,952.36218)"/></g><text x="0" y="115" fill="#000000" font-size="5px" font-weight="bold" font-family="'Helvetica Neue', Helvetica, Arial-Unicode, Arial, Sans-serif">Created by cindy clegane</text><text x="0" y="120" fill="#000000" font-size="5px" font-weight="bold" font-family="'Helvetica Neue', Helvetica, Arial-Unicode, Arial, Sans-serif">from the Noun Project</text></svg>